<svg width="32" height="32" viewBox="0 0 32 32" fill="none" xmlns="http://www.w3.org/2000/svg">
<g opacity="0.5">
<path d="M26.413 6.53596C24.442 5.63396 22.361 4.99296 20.224 4.63196C19.932 5.15496 19.667 5.69296 19.431 6.24396C17.154 5.90096 14.839 5.90096 12.562 6.24396C12.326 5.69296 12.062 5.15496 11.769 4.63196C9.63 4.99696 7.548 5.63796 5.575 6.54096C1.658 12.336 0.596 17.987 1.127 23.558C3.421 25.253 5.988 26.542 8.718 27.369C9.333 26.542 9.876 25.665 10.344 24.747C9.456 24.415 8.6 24.006 7.784 23.525C7.999 23.369 8.209 23.209 8.412 23.053C13.218 25.313 18.782 25.313 23.589 23.053C23.794 23.221 24.004 23.381 24.217 23.525C23.4 24.008 22.541 24.417 21.652 24.75C22.119 25.668 22.663 26.544 23.278 27.369C26.01 26.545 28.579 25.257 30.874 23.561C31.497 17.1 29.809 11.501 26.413 6.53596ZM11.017 20.132C9.538 20.132 8.315 18.789 8.315 17.138C8.315 15.487 9.495 14.132 11.012 14.132C12.529 14.132 13.742 15.486 13.716 17.138C13.69 18.79 12.524 20.132 11.017 20.132ZM20.984 20.132C19.502 20.132 18.285 18.789 18.285 17.138C18.285 15.487 19.465 14.132 20.984 14.132C22.503 14.132 23.707 15.486 23.681 17.138C23.655 18.79 22.492 20.132 20.984 20.132Z" fill="#EDF1FF"/>
</g>
</svg>
