<svg width="32" height="32" viewBox="0 0 32 32" fill="none" xmlns="http://www.w3.org/2000/svg">
<g opacity="0.5">
<path d="M16 2.34499C23.735 2.34499 30 8.60999 30 16.345C29.998 22.36 26.161 27.704 20.463 29.627C19.763 29.767 19.5 29.329 19.5 28.962C19.5 28.489 19.518 26.984 19.518 25.112C19.518 23.8 19.081 22.96 18.573 22.522C21.688 22.172 24.961 20.982 24.961 15.61C24.961 14.07 24.418 12.827 23.526 11.848C23.666 11.498 24.156 10.063 23.386 8.13799C23.386 8.13799 22.213 7.75299 19.536 9.57299C18.416 9.25799 17.226 9.10099 16.036 9.10099C14.846 9.10099 13.656 9.25799 12.536 9.57299C9.859 7.77099 8.686 8.13799 8.686 8.13799C7.916 10.063 8.406 11.498 8.546 11.848C7.654 12.828 7.111 14.088 7.111 15.61C7.111 20.965 10.366 22.173 13.481 22.523C13.078 22.873 12.711 23.486 12.588 24.395C11.783 24.763 9.77 25.358 8.511 23.24C8.248 22.82 7.461 21.788 6.359 21.805C5.186 21.823 5.887 22.47 6.376 22.732C6.971 23.064 7.653 24.307 7.811 24.71C8.091 25.497 9.001 27.003 12.518 26.355C12.518 27.528 12.536 28.63 12.536 28.962C12.536 29.33 12.273 29.749 11.573 29.627C5.854 27.723 1.997 22.372 2 16.344C2 8.60899 8.265 2.34499 16 2.34499Z" fill="#EDF1FF"/>
</g>
</svg>
