<svg width="14" height="14" viewBox="0 0 14 14" fill="none" xmlns="http://www.w3.org/2000/svg">
<path fill-rule="evenodd" clip-rule="evenodd" d="M2.75 0.75H11.25C12.3546 0.75 13.25 1.64543 13.25 2.75V9.8948L10.9085 7.57628C10.1269 6.80237 8.8671 6.80484 8.0885 7.58181L2.43374 13.2251C1.47945 13.0735 0.75 12.247 0.75 11.25V2.75C0.75 1.64543 1.64543 0.75 2.75 0.75Z" fill="#EDF1FF" fill-opacity="0.3"/>
<path d="M2.44501 13.227L8.085 7.58599C8.866 6.80499 10.132 6.80499 10.913 7.58599L13.249 9.922" stroke="#EDF1FF" stroke-width="1.5" stroke-linecap="round" stroke-linejoin="round"/>
<path d="M11.25 0.75H2.75C1.64543 0.75 0.75 1.64543 0.75 2.75V11.25C0.75 12.3546 1.64543 13.25 2.75 13.25H11.25C12.3546 13.25 13.25 12.3546 13.25 11.25V2.75C13.25 1.64543 12.3546 0.75 11.25 0.75Z" stroke="#EDF1FF" stroke-width="1.5" stroke-linecap="round" stroke-linejoin="round"/>
<path d="M7.15799 4.50801L5.89499 4.08701L5.47399 2.82401C5.33699 2.41601 4.66199 2.41601 4.52499 2.82401L4.10399 4.08701L2.84099 4.50801C2.63699 4.57601 2.49899 4.76701 2.49899 4.98201C2.49899 5.19701 2.63699 5.38801 2.84099 5.45601L4.10399 5.87701L4.52499 7.14001C4.59299 7.34401 4.78499 7.48201 4.99999 7.48201C5.21499 7.48201 5.40599 7.34401 5.47499 7.14001L5.89599 5.87701L7.15899 5.45601C7.36299 5.38801 7.50099 5.19701 7.50099 4.98201C7.50099 4.76701 7.36199 4.57601 7.15799 4.50801Z" fill="#EDF1FF"/>
</svg>
