<svg width="40" height="40" viewBox="0 0 40 40" fill="none" xmlns="http://www.w3.org/2000/svg">
<path fill-rule="evenodd" clip-rule="evenodd" d="M10.5555 6.11108H29.4444C31.8991 6.11108 33.8889 8.10093 33.8889 10.5555V26.4329L28.6855 21.2806C26.9486 19.5608 24.1491 19.5663 22.4189 21.2929L9.85273 33.8335C7.73208 33.4966 6.11108 31.66 6.11108 29.4444V10.5555C6.11108 8.10093 8.10093 6.11108 10.5555 6.11108Z" fill="#EDF1FF" fill-opacity="0.3"/>
<path d="M9.87775 33.8377L22.4111 21.3022C24.1466 19.5666 26.9599 19.5666 28.6955 21.3022L33.8866 26.4933" stroke="#EDF1FF" stroke-opacity="0.3" stroke-width="1.5" stroke-linecap="round" stroke-linejoin="round"/>
<path d="M29.4444 6.11108H10.5555C8.10093 6.11108 6.11108 8.10093 6.11108 10.5555V29.4444C6.11108 31.8991 8.10093 33.8889 10.5555 33.8889H29.4444C31.8991 33.8889 33.8889 31.8991 33.8889 29.4444V10.5555C33.8889 8.10093 31.8991 6.11108 29.4444 6.11108Z" stroke="#EDF1FF" stroke-opacity="0.3" stroke-width="1.5" stroke-linecap="round" stroke-linejoin="round"/>
<path d="M20.3511 14.4623L17.5444 13.5267L16.6089 10.72C16.3044 9.81337 14.8044 9.81337 14.5 10.72L13.5644 13.5267L10.7577 14.4623C10.3044 14.6134 9.99774 15.0378 9.99774 15.5156C9.99774 15.9934 10.3044 16.4178 10.7577 16.5689L13.5644 17.5045L14.5 20.3112C14.6511 20.7645 15.0777 21.0711 15.5555 21.0711C16.0333 21.0711 16.4577 20.7645 16.6111 20.3112L17.5466 17.5045L20.3533 16.5689C20.8066 16.4178 21.1133 15.9934 21.1133 15.5156C21.1133 15.0378 20.8044 14.6134 20.3511 14.4623Z" fill="#EDF1FF" fill-opacity="0.3"/>
</svg>
