<svg width="65" height="84" viewBox="0 0 65 84" fill="none" xmlns="http://www.w3.org/2000/svg">
<path fill-rule="evenodd" clip-rule="evenodd" d="M41.6781 20.9441C41.7824 20.6668 41.7584 20.3575 41.6125 20.0996L31.1135 1.53875C30.7306 0.861876 29.7556 0.861878 29.3727 1.53875L0.374504 52.8036C0.153207 53.1948 0.220121 53.6856 0.53807 54.0033L15.1215 68.5755L29.5363 82.9791C29.9267 83.3693 30.5595 83.3693 30.9499 82.9791L39.6294 74.3063C39.9071 74.0288 39.9968 73.6144 39.8585 73.2469L35.534 61.7517C35.4443 61.5131 35.2668 61.3178 35.0379 61.2057L13.0003 50.4119C12.2534 50.0461 12.2534 48.9816 13.0003 48.6158L35.0379 37.822C35.2668 37.7099 35.4443 37.5146 35.534 37.2761L41.6781 20.9441Z" fill="#EDF1FF"/>
<path d="M45.3071 33.4228C45.6259 32.5442 46.8685 32.5442 47.1873 33.4228L51.0471 44.0626C51.1467 44.3369 51.361 44.5541 51.6341 44.6571L62.1205 48.6151C62.983 48.9406 62.983 50.1607 62.1205 50.4862L51.6341 54.4441C51.361 54.5472 51.1467 54.7644 51.0471 55.0387L47.1873 65.6785C46.8685 66.5571 45.6259 66.5571 45.3071 65.6785L41.4473 55.0387C41.3478 54.7644 41.1334 54.5472 40.8603 54.4441L30.3739 50.4862C29.5114 50.1607 29.5114 48.9406 30.3739 48.6151L40.8603 44.6571C41.1334 44.5541 41.3478 44.3369 41.4473 44.0626L45.3071 33.4228Z" fill="#82A5FF"/>
</svg>
